<?xml version="1.0"?>
<svg version="1.1" xmlns="http://www.w3.org/2000/svg" width="266" height="73" style=""><path fill="#56a4a6" d="M36.98291015625,53.7587890625q0,4.1572265625-2.991943359375,6.55078125t-8.324951171875,2.3935546875q-4.9130859375,0-8.6923828125-1.84765625l0-6.046875q3.107421875,1.3857421875,5.259521484375,1.95263671875t3.936767578125,0.56689453125q2.1416015625,0,3.285888671875-0.81884765625t1.144287109375-2.435546875q0-0.90283203125-0.50390625-1.606201171875t-1.480224609375-1.354248046875t-3.978759765625-2.07861328125q-2.8134765625-1.32275390625-4.22021484375-2.54052734375t-2.24658203125-2.83447265625t-0.83984375-3.779296875q0-4.0732421875,2.760986328125-6.40380859375t7.632080078125-2.33056640625q2.3935546875,0,4.566650390625,0.56689453125t4.545654296875,1.595703125l-2.099609375,5.06005859375q-2.45654296875-1.0078125-4.062744140625-1.40673828125t-3.159912109375-0.39892578125q-1.84765625,0-2.83447265625,0.86083984375t-0.98681640625,2.24658203125q0,0.86083984375,0.39892578125,1.501220703125t1.270263671875,1.23876953125t4.125732421875,2.152099609375q4.30419921875,2.0576171875,5.89990234375,4.125732421875t1.595703125,5.070556640625z M59.905815429688,62.283203125l-1.23876953125-3.19140625l-0.16796875,0q-1.61669921875,2.03662109375-3.327880859375,2.823974609375t-4.461669921875,0.787353515625q-3.38037109375,0-5.322509765625-1.931640625t-1.942138671875-5.5009765625q0-3.7373046875,2.614013671875-5.511474609375t7.884033203125-1.963134765625l4.0732421875-0.1259765625l0-1.02880859375q0-3.5693359375-3.6533203125-3.5693359375q-2.8134765625,0-6.61376953125,1.70068359375l-2.12060546875-4.3251953125q4.05224609375-2.12060546875,8.986328125-2.12060546875q4.72412109375,0,7.24365234375,2.0576171875t2.51953125,6.2568359375l0,15.64208984375l-4.47216796875,0z M58.016166992188,51.4072265625l-2.4775390625,0.083984375q-2.79248046875,0.083984375-4.1572265625,1.0078125t-1.36474609375,2.8134765625q0,2.70849609375,3.107421875,2.70849609375q2.2255859375,0,3.558837890625-1.28076171875t1.333251953125-3.4013671875l0-1.931640625z M86.901962890625,43.61767578125l-5.54296875,0l0,18.66552734375l-6.40380859375,0l0-18.66552734375l-3.52734375,0l0-3.08642578125l3.52734375-1.7216796875l0-1.7216796875q0-4.01025390625,1.9736328125-5.85791015625t6.31982421875-1.84765625q3.3173828125,0,5.89990234375,0.98681640625l-1.6376953125,4.703125q-1.931640625-0.60888671875-3.5693359375-0.60888671875q-1.36474609375,0-1.9736328125,0.808349609375t-0.60888671875,2.068115234375l0,1.4697265625l5.54296875,0l0,4.80810546875z M103.25309082031,42.9248046875q-2.03662109375,0-3.19140625,1.291259765625t-1.32275390625,3.663818359375l8.986328125,0q-0.0419921875-2.37255859375-1.23876953125-3.663818359375t-3.2333984375-1.291259765625z M104.15592285156,62.703125q-5.6689453125,0-8.8603515625-3.12841796875t-3.19140625-8.8603515625q0-5.89990234375,2.949951171875-9.122802734375t8.156982421875-3.222900390625q4.97607421875,0,7.74755859375,2.83447265625t2.771484375,7.83154296875l0,3.107421875l-15.13818359375,0q0.10498046875,2.7294921875,1.61669921875,4.26220703125t4.2412109375,1.53271484375q2.12060546875,0,4.01025390625-0.44091796875t3.947265625-1.40673828125l0,4.955078125q-1.6796875,0.83984375-3.59033203125,1.249267578125t-4.6611328125,0.409423828125z M136.52224121094,31.5869140625l9.55322265625,0q6.52978515625,0,9.479736328125,1.858154296875t2.949951171875,5.910400390625q0,2.75048828125-1.291259765625,4.51416015625t-3.432861328125,2.12060546875l0,0.2099609375q2.91845703125,0.65087890625,4.209716796875,2.435546875t1.291259765625,4.7451171875q0,4.19921875-3.033935546875,6.55078125t-8.240966796875,2.3515625l-11.48486328125,0l0-30.6962890625z M143.03103027344,43.74365234375l3.779296875,0q2.6455078125,0,3.831787109375-0.81884765625t1.186279296875-2.70849609375q0-1.763671875-1.291259765625-2.530029296875t-4.083740234375-0.766357421875l-3.42236328125,0l0,6.82373046875z M143.03103027344,48.90869140625l0,7.99951171875l4.2412109375,0q2.6875,0,3.96826171875-1.02880859375t1.28076171875-3.1494140625q0-3.8212890625-5.458984375-3.8212890625l-4.03125,0z M182.77180664062,62.283203125l-1.23876953125-3.19140625l-0.16796875,0q-1.61669921875,2.03662109375-3.327880859375,2.823974609375t-4.461669921875,0.787353515625q-3.38037109375,0-5.322509765625-1.931640625t-1.942138671875-5.5009765625q0-3.7373046875,2.614013671875-5.511474609375t7.884033203125-1.963134765625l4.0732421875-0.1259765625l0-1.02880859375q0-3.5693359375-3.6533203125-3.5693359375q-2.8134765625,0-6.61376953125,1.70068359375l-2.12060546875-4.3251953125q4.05224609375-2.12060546875,8.986328125-2.12060546875q4.72412109375,0,7.24365234375,2.0576171875t2.51953125,6.2568359375l0,15.64208984375l-4.47216796875,0z M180.88215820312,51.4072265625l-2.4775390625,0.083984375q-2.79248046875,0.083984375-4.1572265625,1.0078125t-1.36474609375,2.8134765625q0,2.70849609375,3.107421875,2.70849609375q2.2255859375,0,3.558837890625-1.28076171875t1.333251953125-3.4013671875l0-1.931640625z M218.46033691406,62.283203125l-6.40380859375,0l0-13.71044921875q0-2.54052734375-0.90283203125-3.810791015625t-2.87646484375-1.270263671875q-2.6875,0-3.88427734375,1.795166015625t-1.19677734375,5.952392578125l0,11.0439453125l-6.40380859375,0l0-23.4736328125l4.89208984375,0l0.86083984375,3.00244140625l0.35693359375,0q1.07080078125-1.70068359375,2.949951171875-2.572021484375t4.272705078125-0.871337890625q4.09423828125,0,6.21484375,2.215087890625t2.12060546875,6.393310546875l0,15.30615234375z M234.1605859375,49.517578125l2.79248046875-3.5693359375l6.57177734375-7.138671875l7.22265625,0l-9.322265625,10.18310546875l9.88916015625,13.29052734375l-7.390625,0l-6.7607421875-9.51123046875l-2.75048828125,2.20458984375l0,7.306640625l-6.40380859375,0l0-32.669921875l6.40380859375,0l0,14.5712890625l-0.3359375,5.3330078125l0.083984375,0z"/><path fill="#" d=""/></svg>
